<svg xmlns="http://www.w3.org/2000/svg" xmlns:svg="http://www.w3.org/2000/svg" xmlns:xlink="http://www.w3.org/1999/xlink" id="svg8" width="108" height="108" version="1.1" viewBox="0 0 108 108"><defs id="defs2"><linearGradient id="linearGradient843"><stop style="stop-color:#000;stop-opacity:.1" id="stop839" offset="0"/><stop style="stop-color:#000;stop-opacity:0" id="stop841" offset="1"/></linearGradient><linearGradient id="linearGradient874"><stop id="stop870" offset="0" style="stop-color:#fff;stop-opacity:.1"/><stop style="stop-color:#fff;stop-opacity:.05" id="stop878" offset=".333"/><stop id="stop872" offset="1" style="stop-color:#fff;stop-opacity:0"/></linearGradient><radialGradient id="radialGradient876" cx="0" cy="321.2" r="54" fx="0" fy="321.2" gradientTransform="matrix(3.8300719e-7,1.3333336,-1.3333337,4.0800723e-7,446.26678,348.19984)" gradientUnits="userSpaceOnUse" xlink:href="#linearGradient874"/><linearGradient id="linearGradient845" x1="33" x2="108" y1="363.2" y2="438.2" gradientUnits="userSpaceOnUse" xlink:href="#linearGradient843"/><clipPath id="clipPath843" clipPathUnits="userSpaceOnUse"><circle id="circle845" cx="54" cy="384.2" r="36" style="opacity:1;fill:#fff;fill-opacity:1;fill-rule:nonzero;stroke:none;stroke-width:1.54617035;stroke-linecap:round;stroke-linejoin:miter;stroke-miterlimit:4;stroke-dasharray:none;stroke-opacity:1"/></clipPath><filter style="color-interpolation-filters:sRGB" id="filter919" width="2" height="2" x="-.5" y="-.5"><feFlood id="feFlood909" flood-color="#000" flood-opacity=".2" result="flood"/><feComposite id="feComposite911" in="flood" in2="SourceGraphic" operator="in" result="composite1"/><feGaussianBlur id="feGaussianBlur913" in="composite1" result="blur" stdDeviation="1"/><feOffset id="feOffset915" dx="0" dy="0" result="offset" stdDeviation="1"/><feComposite id="feComposite917" dy="1" in="SourceGraphic" in2="offset" operator="over" result="composite2"/></filter><clipPath id="clipPath849" clipPathUnits="userSpaceOnUse"><path style="fill:#fff;fill-opacity:1;stroke:none;stroke-width:2.09999967" id="path851" d="m 149.8,366.19997 h -12.6 c -2.31,0 -4.2,1.89 -4.2,4.2 v 27.6 c 0,2.31 1.89,4.2 4.2,4.2 h 33.6 c 2.31,0 4.2,-1.89 4.2,-4.2 v -23.4 c 0,-2.31 -1.89,-4.2 -4.2,-4.2 H 154 Z"/></clipPath><filter id="filter849" width="2" height="2" x="-.5" y="-.5" style="color-interpolation-filters:sRGB"><feFlood id="feFlood839" flood-color="#000" flood-opacity=".2" result="flood"/><feComposite id="feComposite841" in="flood" in2="SourceGraphic" operator="in" result="composite1"/><feGaussianBlur id="feGaussianBlur843" in="composite1" result="blur" stdDeviation="2"/><feOffset id="feOffset845" dx="0" dy="2" result="offset"/><feComposite id="feComposite847" in="SourceGraphic" in2="offset" operator="over" result="composite2"/></filter><filter style="color-interpolation-filters:sRGB" id="filter856" width="2" height="2" x="-.5" y="-.5"><feFlood id="feFlood845" flood-color="#000" flood-opacity=".3" result="flood"/><feComposite id="feComposite848" in="flood" in2="SourceGraphic" operator="in" result="composite1"/><feGaussianBlur id="feGaussianBlur850" in="composite1" result="blur" stdDeviation="1"/><feOffset id="feOffset852" dx="0" dy="1" result="offset"/><feComposite id="feComposite854" in="SourceGraphic" in2="offset" operator="over" result="composite2"/></filter></defs><metadata id="metadata5"/><g id="layer" transform="translate(0,-330.19997)"><circle style="opacity:1;fill:#1976d2;fill-opacity:1;fill-rule:nonzero;stroke:none;stroke-width:1.54617035;stroke-linecap:round;stroke-linejoin:miter;stroke-miterlimit:4;stroke-dasharray:none;stroke-opacity:1;filter:url(#filter856)" id="circle" cx="54" cy="384.2" r="36"/><path style="opacity:1;fill:#000;fill-opacity:.2;fill-rule:nonzero;stroke:none;stroke-width:1.54617035;stroke-linecap:round;stroke-linejoin:miter;stroke-miterlimit:4;stroke-dasharray:none;stroke-opacity:1" id="circle-edge-bottom" d="M 89.990234,53.707031 A 36,36 0 0 1 54,89.5 36,36 0 0 1 18.009766,53.792969 36,36 0 0 0 18,54 36,36 0 0 0 54,90 36,36 0 0 0 90,54 36,36 0 0 0 89.9902,53.707031 Z" transform="translate(0,330.19997)"/><path style="opacity:1;fill:#fff;fill-opacity:.2;fill-rule:nonzero;stroke:none;stroke-width:1.54617035;stroke-linecap:round;stroke-linejoin:miter;stroke-miterlimit:4;stroke-dasharray:none;stroke-opacity:1" id="circle-edge-top" d="M 54,18 A 36,36 0 0 0 18,54 36,36 0 0 0 18.0098,54.292969 36,36 0 0 1 54,18.5 36,36 0 0 1 89.990234,54.207031 36,36 0 0 0 90,54 36,36 0 0 0 54,18 Z" transform="translate(0,330.19997)"/><g id="circle-clip-group" clip-path="url(#clipPath843)"><path id="folder-long-shadow" d="m 37.199219,366.19997 c -2.31,0 -4.199219,1.88922 -4.199219,4.19922 v 27.60156 c 0,1.16716 0.482427,2.22714 1.257812,2.99024 L 110.625,477.35817 c 0.75923,0.7472 1.80052,1.20899 2.94336,1.20899 h 33.59961 c 2.31,0 4.19922,-1.88922 4.19922,-4.19922 v -23.40039 c 0,-1.16716 -0.48243,-2.22714 -1.25781,-2.99024 L 73.742188,371.61013 c -0.759232,-0.7472 -1.798565,-1.21094 -2.941407,-1.21094 H 54 l -4.199219,-4.19922 z" style="fill:url(#linearGradient845);fill-opacity:1;stroke:none;stroke-width:2.09999967"/><path id="folder-background" d="M 49.8,366.19997 H 37.2 c -2.31,0 -4.2,1.89 -4.2,4.2 v 27.6 c 0,2.31 1.89,4.2 4.2,4.2 h 33.6 c 2.31,0 4.2,-1.89 4.2,-4.2 v -23.4 c 0,-2.31 -1.89,-4.2 -4.2,-4.2 H 54 Z" style="fill:#eee;fill-opacity:1;stroke:none;stroke-width:2.09999967;filter:url(#filter849)"/><path style="fill:#fff;fill-opacity:1;stroke:none;stroke-width:2.09999967;filter:url(#filter919)" id="folder-foreground" d="m 137.2,376.09997 c -2.31,0 -4.2,1.89 -4.2,4.2 v 17.7 c 0,2.31 1.89,4.2 4.2,4.2 h 33.6 c 2.31,0 4.2,-1.89 4.2,-4.2 v -17.7 c 0,-2.31 -1.89,-4.2 -4.2,-4.2 z" clip-path="url(#clipPath849)" transform="translate(-100)"/><rect style="opacity:1;fill:url(#radialGradient876);fill-opacity:1;fill-rule:nonzero;stroke:none;stroke-width:3.77952766;stroke-linecap:round;stroke-linejoin:miter;stroke-miterlimit:4;stroke-dasharray:none;stroke-opacity:1" id="light" width="108" height="108" x="0" y="330.2"/></g></g></svg>